<svg id="Layer_1" data-name="Layer 1" xmlns="http://www.w3.org/2000/svg" viewBox="0 0 1500 1379.03"><defs><style>.cls-1,.cls-2{fill:#fff;}.cls-2{font-size:179.17px;font-family:UberMove-Medium, Uber Move;font-weight:500;}.cls-3{letter-spacing:-0.04em;}.cls-4{letter-spacing:-0.01em;}.cls-5{letter-spacing:0em;}.cls-6{letter-spacing:-0.01em;}.cls-7{letter-spacing:-0.01em;}</style></defs><path class="cls-1" d="M838,678.29c0,43,0,81.57,0,120.19,0,9.76,7.29,48,23.58,28.89,3.34-3.93,4.54-9.22,5.21-14.34,2.37-18.23.69-35.24.71-53.61,0-25.91.59-51.84-.24-77.72-.47-14.45,3.64-22.82,19-25.3,13.36-2.15,26.36-6.59,40.91-10.37,1,6,2.36,10.24,2.38,14.47.29,66.3.06,132.6.85,198.89.18,14.93-4.54,22.12-19.71,24.3-100.31,14.4-200.55,12-300.89.35-17-2-18-12.94-18-26q.13-91.46,0-182.9c0-6.76,0-13.51,0-21.68-16.53-3.77-32.08-6.57-47.2-10.9-87.58-25.09-142-107-132.64-199.18,8.74-86.27,77.59-152,167.72-158.2,16.17-1.12,23.91-8.4,32-20.59C674.12,170,807.07,152.54,889,227.65c46.19,42.37,53.12,102.76,13.32,151.48-20.95,25.65-48.66,45.7-72.55,69.06C790.1,486.91,748,523.64,712.69,566,673.1,613.63,657.13,672,658.23,734.39c.3,16.66-.11,33.32,0,50,0,13-2.15,27.48,4.45,39.48,2,3.64,5.29,6.8,9.36,7.65,23.37,4.89,16.43-51,15.69-62.13-6.18-92.69,36.21-162.47,107.27-215C836.3,523.74,883.47,501,928,474.83c15.73-9.25,32.26-17.36,47.17-27.79,54.53-38.14,81.17-107.24,19-169.1,29.82,7.2,68.08,39,88.2,74.92,61.37,109.69,8.93,243-120.3,262.56-42.6,6.44-84.42,18-129.65,27.94,17-14.21,31.81-29.61,49.38-40.62,37.39-23.44,76.57-44,114.37-66.84,40.47-24.44,65.68-59.94,72.14-108.56C1034,495.74,965,517,905.32,551.55c-33.9,19.66-65.88,43.74-95.41,69.61-30,26.31-49.33,61.36-57.2,100.38-3.92,19.45-5.22,39.36-5.08,59.18.13,18-3.38,42.16,15,53a31.1,31.1,0,0,0,15.68-24.5,140,140,0,0,0-.53-34.71C771,727.84,799.36,703.27,838,678.29Zm-178-294c-8.13-5.05-12.48-7.86-16.92-10.5-67.67-40.29-152.48,3.15-159.44,81.65-6.19,69.89,67.29,134.32,134.58,117.69,4.61-1.14,10.13-4.51,12.35-8.46,38.93-69.21,100-115.6,162.92-160.48a203.39,203.39,0,0,0,42.72-40.74c29.41-38.22,15.76-84.78-28.84-102.74-32.63-13.13-64.51-9.71-94.05,8.66C672.49,294.8,656.38,333.08,660,384.33Z"/><text class="cls-2" transform="translate(178.22 1152.84)"><tspan class="cls-3">L</tspan><tspan x="83.31" y="0">o</tspan><tspan class="cls-4" x="192.24" y="0">c</tspan><tspan class="cls-5" x="286.3" y="0" xml:space="preserve">al     </tspan><tspan class="cls-6" x="594.46" y="0">K</tspan><tspan class="cls-5" x="698.02" y="0">i</tspan><tspan class="cls-7" x="733.67" y="0">t</tspan><tspan x="793.16" y="0">chen</tspan></text><path class="cls-1" d="M732.45,1079.31c-20,0-36.49-15.67-36.49-34.94s16.45-34.94,36.49-34.94,36.47,15.55,36.47,34.94S752.61,1079.31,732.45,1079.31Zm0-55a20,20,0,1,0,19.78,20A19.85,19.85,0,0,0,732.45,1024.34Z"/><path class="cls-1" d="M703.84,1091.29a41.9,41.9,0,0,1-18.13,35.55c-19.19,13.5-44.77,10.47-59.61-10.62-14.64-20.8-9.26-45.84,10.22-59.55,11-7.73,26.06-9.36,39.25-4.62l7.44-22.11a69.79,69.79,0,0,0-31.58-2.41,2.74,2.74,0,0,0-.09-.39l-3.18-6.36a2.65,2.65,0,0,0-3.39-1.25,21.17,21.17,0,0,1-3.92,1.35c-3.36.67-6.27,1.84-8.45,4.62a7.72,7.72,0,0,1-2.46,1.8,14,14,0,0,1-8.89,1.72,8.56,8.56,0,0,1,2.13-.64,17.16,17.16,0,0,0,8.9-4.68c.44-.44.51-1.23.88-2.19,7.43-1.5,14.88-4,20.08-11.4-.58,3-1.2,4.31-3.51,6.29-1.42,1.22-1.56,2.21,0,3.58,1.35-.81,2.79-1.56,4.12-2.48l.29-.2c12-8.53.76-27.51-12.62-21.31-1,.48-2.09,1-3.11,1.51-7.45,3.79-11.47,11.12-16.88,17.2l7.34-2.09a2.28,2.28,0,0,1-.21.49,2.86,2.86,0,0,1-.45.4c-3.33,2.51-7.16,2.48-11.1,2.5a53.93,53.93,0,0,0-11.07,1c-4.94,1.05-8.21,4.28-9.78,9.19-1.12,3.51,0,7.57,2.76,9.55,3.5,2.47,10.17,2.53,13.35,0-.85-.83-1.67-1.65-2.61-2.58,3.16.63,3.61,1.07,4.18,3.79.49,2.26,1,4.51,1.51,6.88a2.55,2.55,0,0,0,.61,1.19c-24.94,22.93-28.65,58.55-9.8,85.33,21.13,30,60.38,37.24,92.61,14.56a65.83,65.83,0,0,0,28.52-53.15Z"/></svg>