<svg id="Layer_1" data-name="Layer 1" xmlns="http://www.w3.org/2000/svg" viewBox="0 0 1500 1379.03"><defs><style>.cls-1{font-size:179.17px;font-family:UberMove-Medium, Uber Move;font-weight:500;}.cls-2{letter-spacing:-0.04em;}.cls-3{letter-spacing:-0.01em;}.cls-4{letter-spacing:0em;}.cls-5{letter-spacing:-0.01em;}.cls-6{letter-spacing:-0.01em;}</style></defs><path d="M816.75,678.29c0,43,0,81.57,0,120.19,0,9.76,7.28,48,23.57,28.89,3.34-3.93,4.54-9.22,5.21-14.34,2.37-18.23.7-35.24.72-53.61,0-25.91.59-51.84-.25-77.72-.47-14.45,3.64-22.82,19-25.3,13.36-2.15,26.36-6.59,40.91-10.37,1,6,2.36,10.24,2.38,14.47.29,66.3.07,132.6.85,198.89.18,14.93-4.54,22.12-19.71,24.3-100.31,14.4-200.55,12-300.88.35-17-2-18.06-12.94-18-26q.15-91.46,0-182.9c0-6.76,0-13.51,0-21.68-16.54-3.77-32.09-6.57-47.2-10.9-87.58-25.09-142-107-132.65-199.18,8.74-86.27,77.59-152,167.72-158.2,16.17-1.12,23.91-8.4,32-20.59,62.49-94.56,195.43-112,277.32-36.92C913.86,270,920.79,330.41,881,379.13c-21,25.65-48.67,45.7-72.56,69.06-39.61,38.72-81.76,75.45-117,117.85C651.82,613.63,635.85,672,637,734.39c.29,16.66-.12,33.32-.05,50,.05,13-2.15,27.48,4.45,39.48,2,3.64,5.29,6.8,9.36,7.65,23.37,4.89,16.43-51,15.69-62.13-6.18-92.69,36.21-162.47,107.27-215C815,523.74,862.19,501,906.76,474.83,922.5,465.58,939,457.47,953.93,447c54.53-38.14,81.17-107.24,19-169.1,29.83,7.2,68.09,39,88.21,74.92,61.36,109.69,8.92,243-120.31,262.56-42.6,6.44-84.42,18-129.64,27.94,17-14.21,31.8-29.61,49.37-40.62,37.4-23.44,76.58-44,114.37-66.84,40.47-24.44,65.69-59.94,72.14-108.56-34.33,68.4-103.33,89.61-163,124.21-33.91,19.66-65.88,43.74-95.41,69.61-30,26.31-49.34,61.36-57.21,100.38-3.92,19.45-5.21,39.36-5.08,59.18.13,18-3.38,42.16,15,53a31.07,31.07,0,0,0,15.67-24.5,139.51,139.51,0,0,0-.53-34.71C749.76,727.84,778.09,703.27,816.75,678.29Zm-178-294c-8.13-5.05-12.48-7.86-16.92-10.5C554.11,333.54,469.3,377,462.35,455.48c-6.19,69.89,67.28,134.32,134.57,117.69,4.61-1.14,10.13-4.51,12.36-8.46,38.93-69.21,100-115.6,162.92-160.48a203.88,203.88,0,0,0,42.72-40.74c29.4-38.22,15.75-84.78-28.85-102.74-32.63-13.13-64.51-9.71-94.05,8.66C651.21,294.8,635.1,333.08,638.7,384.33Z"/><text class="cls-1" transform="translate(156.95 1152.84)"><tspan class="cls-2">L</tspan><tspan x="83.31" y="0">o</tspan><tspan class="cls-3" x="192.24" y="0">c</tspan><tspan class="cls-4" x="286.3" y="0" xml:space="preserve">al     </tspan><tspan class="cls-5" x="594.46" y="0">K</tspan><tspan class="cls-4" x="698.02" y="0">i</tspan><tspan class="cls-6" x="733.67" y="0">t</tspan><tspan x="793.16" y="0">chen</tspan></text><path d="M711.17,1079.31c-20,0-36.48-15.67-36.48-34.94s16.44-34.94,36.48-34.94,36.48,15.55,36.48,34.94S731.34,1079.31,711.17,1079.31Zm0-55a20,20,0,1,0,19.78,20A19.84,19.84,0,0,0,711.17,1024.34Z"/><path d="M682.57,1091.29a41.91,41.91,0,0,1-18.14,35.55c-19.19,13.5-44.76,10.47-59.61-10.62-14.64-20.8-9.26-45.84,10.23-59.55,11-7.73,26.05-9.36,39.24-4.62l7.44-22.11a69.79,69.79,0,0,0-31.58-2.41,2.74,2.74,0,0,0-.09-.39l-3.18-6.36a2.65,2.65,0,0,0-3.39-1.25,20.92,20.92,0,0,1-3.92,1.35c-3.35.67-6.27,1.84-8.45,4.62a7.79,7.79,0,0,1-2.45,1.8,14,14,0,0,1-8.9,1.72,8.63,8.63,0,0,1,2.14-.64,17.09,17.09,0,0,0,8.89-4.68c.44-.44.52-1.23.89-2.19,7.43-1.5,14.87-4,20.08-11.4-.59,3-1.21,4.31-3.52,6.29-1.41,1.22-1.56,2.21,0,3.58,1.35-.81,2.8-1.56,4.13-2.48l.28-.2c12-8.53.76-27.51-12.61-21.31-1.06.48-2.09,1-3.12,1.51-7.44,3.79-11.46,11.12-16.88,17.2l7.35-2.09a2.16,2.16,0,0,1-.22.49,2.86,2.86,0,0,1-.45.4c-3.32,2.51-7.16,2.48-11.09,2.5a54,54,0,0,0-11.08,1c-4.94,1.05-8.2,4.28-9.77,9.19-1.13,3.51,0,7.57,2.75,9.55,3.5,2.47,10.18,2.53,13.35,0l-2.61-2.58c3.17.63,3.61,1.07,4.19,3.79.48,2.26,1,4.51,1.5,6.88a2.65,2.65,0,0,0,.61,1.19c-24.93,22.93-28.65,58.55-9.8,85.33,21.14,30,60.38,37.24,92.61,14.56a65.87,65.87,0,0,0,28.53-53.15Z"/></svg>