<svg id="Layer_1" data-name="Layer 1" xmlns="http://www.w3.org/2000/svg" viewBox="0 0 1500 1379.03"><defs><style>.cls-1{fill:#87212d;}.cls-2{font-size:179.17px;font-family:UberMove-Medium, Uber Move;font-weight:500;}.cls-3{letter-spacing:-0.04em;}.cls-4{letter-spacing:-0.01em;}.cls-5{letter-spacing:0em;}.cls-6{letter-spacing:-0.01em;}.cls-7{letter-spacing:-0.01em;}</style></defs><path class="cls-1" d="M816.06,678.29c0,43,0,81.57,0,120.19,0,9.76,7.28,48,23.57,28.89,3.35-3.93,4.55-9.22,5.22-14.34,2.37-18.23.69-35.24.71-53.61,0-25.91.59-51.84-.25-77.72-.46-14.45,3.65-22.82,19-25.3,13.37-2.15,26.37-6.59,40.92-10.37,1,6,2.36,10.24,2.38,14.47.29,66.3.06,132.6.85,198.89.18,14.93-4.54,22.12-19.71,24.3-100.32,14.4-200.56,12-300.89.35-17-2-18-12.94-18-26q.14-91.46,0-182.9V653.44c-16.53-3.77-32.09-6.57-47.2-10.9-87.58-25.09-142-107-132.65-199.18,8.74-86.27,77.6-152,167.73-158.2,16.17-1.12,23.91-8.4,32-20.59C652.15,170,785.09,152.54,867,227.65,913.16,270,920.09,330.41,880.3,379.13c-20.95,25.65-48.66,45.7-72.56,69.06C768.13,486.91,726,523.64,690.71,566,651.13,613.63,635.15,672,636.26,734.39c.3,16.66-.11,33.32,0,50,.06,13-2.14,27.48,4.46,39.48,2,3.64,5.29,6.8,9.36,7.65,23.37,4.89,16.43-51,15.69-62.13-6.18-92.69,36.21-162.47,107.27-215,41.33-30.58,88.51-53.28,133.08-79.49,15.73-9.25,32.26-17.36,47.16-27.79,54.54-38.14,81.18-107.24,19-169.1,29.82,7.2,68.08,39,88.2,74.92,61.36,109.69,8.92,243-120.3,262.56-42.6,6.44-84.43,18-129.65,27.94,17-14.21,31.81-29.61,49.38-40.62,37.39-23.44,76.57-44,114.37-66.84,40.47-24.44,65.68-59.94,72.14-108.56C1012,495.74,943,517,883.35,551.55c-33.9,19.66-65.88,43.74-95.41,69.61-30.05,26.31-49.34,61.36-57.2,100.38-3.92,19.45-5.22,39.36-5.08,59.18.12,18-3.38,42.16,15,53a31.1,31.1,0,0,0,15.68-24.5,140.47,140.47,0,0,0-.53-34.71C749.07,727.84,777.39,703.27,816.06,678.29Zm-178-294c-8.13-5.05-12.48-7.86-16.92-10.5-67.68-40.29-152.48,3.15-159.44,81.65-6.19,69.89,67.29,134.32,134.58,117.69,4.6-1.14,10.13-4.51,12.35-8.46,38.93-69.21,100-115.6,162.92-160.48a203.39,203.39,0,0,0,42.72-40.74c29.4-38.22,15.76-84.78-28.85-102.74-32.63-13.13-64.51-9.71-94,8.66C650.52,294.8,634.41,333.08,638,384.33Z"/><text class="cls-2" transform="translate(156.25 1152.84)"><tspan class="cls-3">L</tspan><tspan x="83.31" y="0">o</tspan><tspan class="cls-4" x="192.24" y="0">c</tspan><tspan class="cls-5" x="286.3" y="0">al</tspan><tspan class="cls-1" x="415.3" y="0" xml:space="preserve">     </tspan><tspan class="cls-6" x="594.46" y="0">K</tspan><tspan class="cls-5" x="698.02" y="0">i</tspan><tspan class="cls-7" x="733.67" y="0">t</tspan><tspan x="793.16" y="0">chen</tspan></text><path class="cls-1" d="M710.47,1079.31c-20,0-36.48-15.67-36.48-34.94s16.44-34.94,36.48-34.94S747,1025,747,1044.37,730.64,1079.31,710.47,1079.31Zm0-55a20,20,0,1,0,19.78,20A19.84,19.84,0,0,0,710.47,1024.34Z"/><path class="cls-1" d="M681.87,1091.29a41.91,41.91,0,0,1-18.14,35.55c-19.18,13.5-44.76,10.47-59.6-10.62-14.64-20.8-9.26-45.84,10.22-59.55,11-7.73,26.06-9.36,39.25-4.62l7.44-22.11a69.79,69.79,0,0,0-31.58-2.41,2.74,2.74,0,0,0-.09-.39l-3.18-6.36a2.65,2.65,0,0,0-3.39-1.25,21.17,21.17,0,0,1-3.92,1.35c-3.36.67-6.27,1.84-8.45,4.62a7.83,7.83,0,0,1-2.46,1.8,14,14,0,0,1-8.9,1.72,8.76,8.76,0,0,1,2.14-.64,17.16,17.16,0,0,0,8.9-4.68c.44-.44.51-1.23.88-2.19,7.43-1.5,14.88-4,20.08-11.4-.59,3-1.2,4.31-3.51,6.29-1.42,1.22-1.56,2.21,0,3.58,1.35-.81,2.8-1.56,4.13-2.48l.29-.2c12-8.53.75-27.51-12.62-21.31-1.05.48-2.09,1-3.12,1.51-7.44,3.79-11.46,11.12-16.87,17.2l7.34-2.09a2.28,2.28,0,0,1-.21.49,2.86,2.86,0,0,1-.45.4c-3.33,2.51-7.16,2.48-11.1,2.5a54.09,54.09,0,0,0-11.08,1c-4.93,1.05-8.2,4.28-9.77,9.19-1.12,3.51,0,7.57,2.75,9.55,3.51,2.47,10.18,2.53,13.35,0l-2.6-2.58c3.16.63,3.6,1.07,4.18,3.79.48,2.26,1,4.51,1.51,6.88a2.55,2.55,0,0,0,.61,1.19c-24.94,22.93-28.65,58.55-9.8,85.33,21.13,30,60.38,37.24,92.61,14.56a65.89,65.89,0,0,0,28.52-53.15Z"/></svg>